<?xml version="1.0" standalone="no"?>
<!DOCTYPE svg PUBLIC "-//W3C//DTD SVG 20010904//EN"
 "http://www.w3.org/TR/2001/REC-SVG-20010904/DTD/svg10.dtd">
<svg version="1.0" xmlns="http://www.w3.org/2000/svg"
 width="660.000000pt" height="660.000000pt" viewBox="0 0 660.000000 660.000000"
 preserveAspectRatio="xMidYMid meet">

<g transform="translate(0.000000,660.000000) scale(0.100000,-0.100000)"
fill="#000000" stroke="none">
<path d="M867 6452 c-19 -21 -21 -45 -7 -73 13 -24 75 -27 88 -3 8 14 10 14
21 0 16 -19 62 -21 79 -4 17 17 15 64 -4 82 -19 20 -44 20 -69 2 -17 -12 -22
-12 -39 0 -28 19 -50 18 -69 -4z m72 -21 c11 -21 4 -39 -21 -52 -25 -13 -48 4
-48 37 0 41 50 52 69 15z m96 -21 c0 -28 -4 -36 -21 -38 -11 -2 -27 4 -34 13
-20 24 3 67 33 63 18 -2 22 -9 22 -38z"/>
<path d="M4570 6460 c0 -5 7 -10 15 -10 8 0 15 5 15 10 0 6 -7 10 -15 10 -8 0
-15 -4 -15 -10z"/>
<path d="M5565 6460 c-3 -5 1 -10 9 -10 9 0 16 5 16 10 0 6 -4 10 -9 10 -6 0
-13 -4 -16 -10z"/>
<path d="M6092 6407 c-26 -27 -29 -73 -6 -105 22 -32 37 -27 20 6 -19 37 -11
66 20 81 41 18 44 14 44 -54 0 -63 1 -65 25 -65 33 0 75 42 75 74 0 13 -12 38
-26 55 -23 27 -32 31 -78 31 -42 0 -57 -5 -74 -23z m152 -40 c14 -22 -3 -51
-33 -55 -19 -3 -21 1 -21 42 0 43 1 45 22 37 12 -4 27 -15 32 -24z"/>
<path d="M4565 6360 c0 -53 2 -60 20 -60 18 0 20 5 17 60 -3 48 -7 60 -20 60
-14 0 -17 -11 -17 -60z"/>
<path d="M4655 6410 c-4 -6 -1 -9 5 -8 7 2 16 -7 20 -18 10 -25 -12 -64 -36
-64 -8 0 -14 -4 -14 -10 0 -15 26 -12 40 5 16 19 30 19 30 -1 0 -19 41 -16 48
4 2 7 -2 10 -11 6 -10 -3 -18 3 -22 17 -6 18 -1 28 20 46 15 13 25 27 21 30
-3 3 -15 -2 -27 -13 -19 -17 -21 -18 -30 -1 -11 19 -34 23 -44 7z"/>
<path d="M5558 6360 c3 -48 7 -60 20 -60 14 0 16 9 14 60 -3 48 -7 60 -20 60
-14 0 -16 -9 -14 -60z"/>
<path d="M5647 6413 c-4 -3 -7 -11 -7 -17 0 -6 4 -4 9 3 8 12 12 10 22 -12 10
-23 10 -30 -6 -47 -10 -11 -24 -20 -32 -20 -7 0 -13 -4 -13 -10 0 -15 26 -12
40 5 7 8 16 15 21 15 5 0 9 -7 9 -15 0 -18 36 -20 46 -3 4 7 3 8 -4 4 -7 -4
-17 4 -24 20 -12 25 -10 29 22 55 22 19 29 29 18 29 -8 0 -21 -7 -28 -15 -7
-8 -16 -15 -21 -15 -5 0 -9 7 -9 15 0 15 -31 21 -43 8z"/>
<path d="M4980 6330 l0 -50 -45 0 c-25 0 -45 -4 -45 -10 0 -5 20 -10 45 -10
l45 0 0 -45 c0 -25 5 -45 10 -45 6 0 10 20 10 45 l0 45 45 0 c57 0 59 18 3 22
l-43 3 -3 48 c-4 63 -22 61 -22 -3z"/>
<path d="M5380 6370 c0 -6 30 -10 70 -10 40 0 70 4 70 10 0 6 -30 10 -70 10
-40 0 -70 -4 -70 -10z"/>
<path d="M4425 6315 c-27 -26 -34 -80 -15 -115 18 -34 110 -34 110 1 0 6 -7 6
-19 -1 -11 -5 -24 -10 -30 -10 -16 0 -41 30 -41 51 0 16 7 19 50 19 43 0 50 3
50 20 0 26 -34 60 -60 60 -12 0 -32 -11 -45 -25z m69 -11 c11 -29 6 -34 -29
-34 -36 0 -46 15 -23 38 17 17 45 15 52 -4z"/>
<path d="M5253 6330 c-48 -19 -58 -95 -18 -135 30 -30 55 -32 86 -4 21 18 21
20 4 14 -45 -16 -53 -16 -69 0 -9 9 -16 25 -16 36 0 16 7 19 50 19 46 0 50 2
50 24 0 14 -10 32 -22 40 -25 18 -33 19 -65 6z m55 -37 c3 -20 -1 -23 -32 -23
-39 0 -41 2 -25 31 14 27 53 21 57 -8z"/>
<path d="M600 6227 c0 -8 86 -124 191 -258 105 -134 194 -250 196 -257 3 -7
-85 -133 -196 -281 -111 -147 -201 -273 -201 -279 0 -14 695 -18 703 -4 3 4 8
49 12 101 7 86 6 93 -10 89 -11 -2 -23 -19 -30 -46 -23 -76 -7 -72 -307 -72
l-269 0 20 28 c11 15 95 128 186 252 91 123 165 231 165 238 0 8 -76 112 -170
233 -93 120 -170 221 -170 224 0 3 110 5 244 5 243 0 245 0 261 -22 8 -13 20
-40 26 -60 7 -28 15 -38 30 -38 18 0 20 6 17 78 l-3 77 -347 3 c-288 2 -348 0
-348 -11z"/>
<path d="M6360 6229 c0 -8 -23 -10 -70 -7 l-70 4 0 -30 c0 -23 3 -27 12 -18 7
7 39 12 75 12 61 0 63 1 63 25 0 14 -2 25 -5 25 -3 0 -5 -5 -5 -11z"/>
<path d="M6400 6205 c0 -8 7 -15 15 -15 8 0 15 7 15 15 0 8 -7 15 -15 15 -8 0
-15 -7 -15 -15z"/>
<path d="M2603 6180 c-13 -5 -23 -14 -23 -20 0 -13 6 -13 29 2 24 15 51 4 51
-21 0 -11 -18 -41 -40 -66 -22 -25 -40 -50 -40 -56 0 -5 25 -9 55 -9 50 0 55
2 55 22 0 17 -3 19 -12 10 -7 -7 -25 -12 -41 -12 l-29 0 41 46 c45 51 52 87
22 104 -23 12 -38 12 -68 0z"/>
<path d="M3542 6126 c-52 -60 -51 -173 3 -225 l27 -26 -18 28 c-39 63 -35 188
8 234 12 13 19 23 16 23 -3 0 -19 -15 -36 -34z"/>
<path d="M3847 6139 c47 -52 52 -157 11 -229 l-20 -35 26 24 c64 60 54 207
-18 251 l-21 13 22 -24z"/>
<path d="M3710 6130 c0 -5 5 -10 10 -10 6 0 10 5 10 10 0 6 -4 10 -10 10 -5 0
-10 -4 -10 -10z"/>
<path d="M1593 6104 c-24 -14 -43 -30 -43 -37 0 -8 3 -8 12 1 30 30 38 14 38
-83 0 -76 -3 -95 -14 -95 -8 0 -18 -4 -21 -10 -4 -6 19 -10 62 -9 59 1 65 3
41 12 l-27 11 -3 118 -3 118 -42 -26z"/>
<path d="M6230 6110 c-26 -49 20 -101 109 -122 85 -19 125 18 90 84 -27 50
-177 79 -199 38z m76 -10 c10 0 14 -12 14 -39 0 -40 0 -40 -29 -30 -16 6 -37
19 -47 31 -18 19 -18 20 1 34 11 8 26 12 33 9 8 -3 20 -5 28 -5z m108 -40 c29
-29 14 -52 -31 -48 -36 3 -38 5 -41 42 -3 38 -3 38 25 32 15 -4 37 -16 47 -26z"/>
<path d="M3047 6068 c-43 -32 -37 -133 8 -144 28 -7 75 2 75 15 0 4 -17 8 -37
7 l-38 -1 0 54 c0 41 4 56 18 65 14 9 21 7 31 -6 7 -10 19 -18 25 -18 7 0 11
8 9 18 -4 21 -65 29 -91 10z"/>
<path d="M3197 6067 c-23 -16 -36 -66 -26 -101 10 -36 24 -46 67 -46 45 0 72
30 72 80 0 66 -63 104 -113 67z m67 -19 c29 -41 14 -118 -22 -118 -29 0 -42
21 -42 70 0 68 33 92 64 48z"/>
<path d="M3362 6068 c-25 -25 -14 -57 29 -78 27 -14 39 -27 37 -38 -5 -24 -36
-27 -59 -6 -21 19 -35 14 -26 -11 10 -24 93 -21 107 4 14 27 3 49 -34 68 -38
20 -48 34 -34 50 14 17 33 16 48 -2 14 -17 37 -4 26 14 -10 15 -79 14 -94 -1z"/>
<path d="M3653 6073 c-19 -7 -16 -21 3 -19 10 0 21 -10 26 -26 8 -22 5 -34
-12 -58 -13 -18 -28 -29 -36 -26 -8 3 -14 -1 -14 -9 0 -23 27 -18 48 10 24 31
30 31 34 3 4 -29 39 -35 59 -12 13 16 12 17 -5 11 -23 -9 -36 7 -36 44 0 26
27 59 48 59 7 0 12 7 12 15 0 24 -28 17 -47 -11 l-16 -26 -14 26 c-13 25 -25
30 -50 19z"/>
<path d="M4060 6050 c0 -6 40 -10 100 -10 60 0 100 4 100 10 0 6 -40 10 -100
10 -60 0 -100 -4 -100 -10z"/>
<path d="M2342 6034 c-12 -8 -22 -20 -22 -27 0 -8 3 -8 12 1 7 7 20 12 29 12
16 0 16 -4 2 -57 -8 -32 -19 -62 -24 -67 -15 -16 -10 -26 10 -26 16 0 23 13
36 75 16 69 19 75 42 75 24 0 25 -3 18 -32 -15 -74 -17 -106 -6 -113 16 -9 61
2 61 16 0 6 -9 8 -20 4 -24 -8 -25 2 -8 74 10 43 15 51 35 51 14 0 23 6 23 15
0 22 -156 21 -188 -1z"/>
<path d="M4738 6013 c193 -2 511 -2 705 0 193 1 35 2 -353 2 -388 0 -546 -1
-352 -2z"/>
<path d="M4060 5980 c0 -6 40 -10 100 -10 60 0 100 4 100 10 0 6 -40 10 -100
10 -60 0 -100 -4 -100 -10z"/>
<path d="M5025 5907 c-11 -8 -15 -19 -10 -26 5 -9 13 -7 31 10 36 34 74 8 60
-44 -3 -12 -26 -47 -51 -77 -62 -75 -60 -82 23 -78 61 3 67 5 70 26 2 12 -1
22 -7 22 -6 0 -11 -4 -11 -10 0 -5 -18 -10 -40 -10 -22 0 -40 3 -40 8 0 4 20
30 45 59 46 53 58 96 33 121 -16 16 -80 15 -103 -1z"/>
<path d="M6130 5660 c0 -101 3 -131 13 -127 9 3 12 37 12 127 0 90 -3 124 -12
128 -10 3 -13 -27 -13 -128z"/>
<path d="M6220 5660 c0 -101 3 -131 13 -127 9 3 12 37 12 127 0 90 -3 124 -12
128 -10 3 -13 -27 -13 -128z"/>
<path d="M1950 5730 c0 -6 45 -10 115 -10 70 0 115 4 115 10 0 6 -45 10 -115
10 -70 0 -115 -4 -115 -10z"/>
<path d="M1518 5693 c56 -2 148 -2 205 0 56 1 10 3 -103 3 -113 0 -159 -2
-102 -3z"/>
<path d="M2423 5693 c59 -2 155 -2 215 0 59 1 10 3 -108 3 -118 0 -167 -2
-107 -3z"/>
<path d="M1950 5655 c0 -13 18 -15 116 -15 88 0 115 3 112 13 -3 8 -38 13
-116 15 -95 2 -112 0 -112 -13z"/>
<path d="M1674 5606 c-26 -20 -11 -32 17 -13 11 9 28 13 35 10 26 -10 14 -51
-26 -98 -22 -25 -40 -50 -40 -56 0 -5 25 -9 55 -9 50 0 60 5 53 27 -2 4 -18 6
-35 4 -42 -3 -41 7 2 49 36 35 44 67 23 88 -16 16 -60 15 -84 -2z"/>
<path d="M2512 5560 c-66 -40 -92 -160 -46 -211 27 -30 97 -26 123 7 55 70
-13 155 -90 114 -26 -14 -25 3 2 47 14 22 32 36 50 40 16 3 29 9 29 14 0 15
-34 10 -68 -11z m46 -112 c7 -7 12 -28 12 -48 0 -39 -14 -60 -41 -60 -27 0
-49 28 -49 64 0 37 15 56 45 56 12 0 26 -5 33 -12z"/>
<path d="M1435 5490 c-19 -20 -8 -29 12 -9 20 20 23 -8 8 -73 -18 -78 -18 -78
0 -78 8 0 17 12 21 28 14 62 26 90 49 112 35 33 49 17 36 -41 -18 -74 -14 -99
12 -99 23 0 47 17 47 33 0 5 -7 4 -15 -3 -25 -21 -29 -5 -15 60 10 48 10 63 0
75 -17 20 -32 19 -63 -5 l-26 -20 -6 20 c-8 26 -37 26 -60 0z"/>
<path d="M5560 3210 c0 -2203 0 -2210 20 -2210 20 0 20 7 20 2210 0 2203 0
2210 -20 2210 -20 0 -20 -7 -20 -2210z"/>
<path d="M5191 5354 c-42 -35 -49 -82 -22 -134 l21 -40 -80 0 c-87 0 -98 -7
-86 -55 l6 -25 225 0 225 0 0 40 0 40 -103 0 c-89 0 -106 3 -124 20 -34 31
-39 61 -13 82 18 15 41 18 131 18 l109 0 0 40 0 40 -129 0 c-124 0 -131 -1
-160 -26z"/>
<path d="M6090 5330 c-26 -26 -26 -81 -2 -103 27 -24 33 -21 18 9 -19 36 -9
61 30 74 68 23 139 -26 100 -69 -21 -24 -20 -41 3 -41 42 0 37 96 -6 130 -35
28 -115 28 -143 0z"/>
<path d="M4312 5278 c-7 -7 -12 -22 -12 -35 0 -27 -7 -29 -32 -7 -14 14 -20
14 -33 4 -8 -7 -15 -19 -15 -27 0 -13 3 -13 16 -2 14 11 19 10 34 -8 17 -22
17 -73 -1 -73 -5 0 -9 -7 -9 -15 0 -8 5 -15 10 -15 6 0 13 7 15 15 15 49 15
49 27 37 17 -17 45 -15 52 4 10 26 6 40 -5 21 -10 -18 -12 -18 -30 -1 -24 22
-25 70 -1 83 12 7 14 13 7 20 -8 8 -15 7 -23 -1z"/>
<path d="M2078 5213 c-29 -7 -20 -23 12 -23 40 0 40 -28 0 -90 -25 -39 -37
-49 -68 -54 -72 -12 -103 -8 -109 14 -6 24 -5 23 -38 8 -32 -14 -32 -23 0 -44
20 -13 40 -16 90 -11 36 2 65 3 65 1 0 -2 -11 -20 -25 -40 -30 -44 -31 -58 -5
-84 21 -21 100 -29 100 -10 0 6 -11 10 -24 10 -46 0 -49 23 -10 82 l37 56 61
4 c68 6 86 2 86 -17 0 -24 17 -26 41 -5 l24 20 -25 21 c-22 19 -33 20 -93 14
l-69 -6 27 46 c23 39 26 50 16 71 -6 13 -22 29 -37 34 -26 10 -28 11 -56 3z"/>
<path d="M6114 5156 c-35 -16 -44 -32 -44 -82 0 -53 36 -84 97 -84 60 0 90 20
98 64 9 45 -16 91 -56 105 -41 14 -57 13 -95 -3z m121 -46 c20 -16 19 -44 -1
-65 -25 -25 -122 -17 -141 12 -14 20 -13 24 12 49 23 23 33 26 71 21 24 -2 51
-10 59 -17z"/>
<path d="M4135 5104 c-33 -18 -63 -34 -67 -34 -4 0 -8 10 -10 23 -3 18 -6 16
-17 -16 -7 -21 -11 -40 -9 -43 3 -2 20 -7 39 -10 31 -6 32 -5 16 8 -17 13 -13
17 52 53 39 21 71 42 71 47 0 12 -10 9 -75 -28z"/>
<path d="M753 5072 c-18 -9 -33 -19 -33 -24 0 -5 8 -4 19 1 26 14 31 5 31 -57
0 -45 -3 -55 -20 -59 -37 -10 -20 -23 30 -23 50 0 67 13 30 23 -16 4 -20 15
-22 80 l-3 74 -32 -15z"/>
<path d="M1117 5074 c-15 -8 -27 -20 -27 -26 0 -7 4 -7 13 1 21 17 27 3 27
-61 0 -51 -2 -58 -20 -58 -11 0 -20 -4 -20 -10 0 -5 23 -10 50 -10 28 0 50 5
50 10 0 6 -7 10 -15 10 -12 0 -15 15 -15 74 0 41 -3 77 -8 79 -4 3 -19 -1 -35
-9z"/>
<path d="M3912 5038 c-7 -7 -12 -20 -12 -29 0 -15 -6 -17 -34 -12 -29 4 -37 1
-51 -20 -14 -22 -15 -30 -3 -54 19 -41 71 -45 95 -6 14 21 25 27 44 25 52 -6
74 51 37 95 -13 16 -60 17 -76 1z m66 -20 c28 -28 1 -75 -38 -63 -14 4 -20 15
-20 34 0 15 3 31 7 34 10 11 38 8 51 -5z m-95 -43 c16 -16 12 -48 -7 -64 -17
-14 -56 14 -56 39 0 10 8 24 18 29 23 14 28 13 45 -4z"/>
<path d="M4345 5038 c-29 -16 -31 -18 -18 -26 6 -4 34 -50 63 -102 29 -52 56
-99 60 -103 4 -5 18 -3 31 4 22 11 22 12 4 19 -19 7 -100 147 -114 195 -5 20
-9 22 -26 13z"/>
<path d="M5168 5018 c-20 -39 -15 -120 10 -155 31 -44 96 -67 172 -60 102 9
147 60 138 157 -6 60 -21 80 -60 80 -27 0 -30 -3 -23 -22 4 -13 9 -39 12 -59
7 -50 -21 -69 -99 -69 -87 0 -117 38 -83 104 21 41 19 46 -20 46 -25 0 -37 -6
-47 -22z"/>
<path d="M880 5020 c0 -6 32 -10 75 -10 43 0 75 4 75 10 0 6 -32 10 -75 10
-43 0 -75 -4 -75 -10z"/>
<path d="M4245 4982 c-22 -12 -26 -17 -13 -20 9 -2 33 -34 53 -73 33 -64 38
-68 57 -58 19 10 20 13 6 23 -16 12 -57 87 -67 123 -6 20 -7 21 -36 5z"/>
<path d="M880 4960 c0 -6 32 -10 75 -10 43 0 75 4 75 10 0 6 -32 10 -75 10
-43 0 -75 -4 -75 -10z"/>
<path d="M2300 4954 c0 -8 10 -14 25 -14 29 0 43 -24 26 -44 -7 -8 -88 -58
-181 -113 -93 -54 -169 -103 -170 -109 0 -5 16 -26 36 -45 36 -33 37 -34 30
-8 -6 29 3 40 68 79 31 19 41 21 44 10 3 -7 19 -29 37 -48 27 -30 39 -36 87
-40 66 -5 111 8 168 49 50 37 74 86 60 124 -12 30 -63 55 -115 55 l-35 0 20
20 c26 26 25 42 -2 67 -29 26 -98 38 -98 17z m167 -146 c22 -18 14 -49 -19
-80 -71 -66 -171 -88 -215 -46 -30 28 -29 39 5 70 69 65 184 93 229 56z"/>
<path d="M3662 4957 c-6 -6 -14 -30 -18 -52 -7 -38 -7 -39 -22 -17 -17 25 -57
29 -66 6 -10 -27 -7 -39 7 -20 11 16 15 15 41 -13 24 -25 28 -35 22 -62 -3
-17 -13 -37 -21 -43 -9 -7 -11 -16 -6 -24 13 -21 41 13 41 49 0 16 5 29 10 29
6 0 10 -4 10 -10 0 -5 9 -14 21 -20 25 -14 49 2 49 33 0 19 -1 20 -13 3 -11
-16 -14 -15 -40 12 -23 23 -26 34 -21 61 4 18 13 35 20 38 16 6 19 29 5 37 -5
3 -13 0 -19 -7z"/>
<path d="M4144 4925 c-10 -8 -13 -15 -7 -15 7 0 24 -23 39 -51 21 -43 24 -56
15 -76 -7 -15 -18 -23 -28 -21 -20 4 -71 85 -72 115 -1 21 -2 22 -30 6 -27
-16 -28 -18 -10 -32 26 -24 58 -89 52 -111 -6 -24 -32 -34 -50 -18 -20 17 -53
83 -53 108 0 20 -1 20 -32 4 -27 -14 -29 -18 -15 -26 10 -5 28 -31 41 -57 33
-65 50 -77 82 -62 14 6 28 21 31 32 5 16 11 19 34 14 23 -5 31 -1 50 24 14 19
25 27 30 20 5 -8 13 -7 30 2 19 10 21 14 8 17 -9 1 -32 34 -50 72 -19 38 -37
69 -40 69 -3 1 -14 -6 -25 -14z"/>
<path d="M6070 4890 c0 -52 23 -90 55 -90 19 0 54 39 62 68 7 29 36 45 51 30
16 -16 15 -43 -3 -58 -21 -17 -19 -30 4 -30 42 0 39 102 -4 122 -34 15 -52 5
-77 -47 -23 -48 -50 -59 -66 -27 -11 20 -6 40 16 65 14 16 13 17 -11 17 -26 0
-27 -3 -27 -50z"/>
<path d="M3153 4785 c-98 -30 -276 -154 -508 -355 -214 -185 -407 -344 -460
-380 -38 -26 -60 -34 -95 -35 -45 0 -45 0 -45 34 0 41 -14 48 -45 23 -29 -24
-20 -56 23 -83 104 -63 239 16 691 403 265 228 398 329 459 353 57 21 77 15
77 -24 0 -41 17 -48 47 -18 24 23 24 26 9 49 -31 47 -78 57 -153 33z"/>
<path d="M4346 4792 c-2 -4 -1 -14 4 -22 7 -11 12 -12 21 -3 6 6 8 16 5 22 -8
13 -23 14 -30 3z"/>
<path d="M5223 4736 c-90 -40 -94 -193 -7 -247 85 -52 223 -29 257 44 20 42
22 141 4 177 -14 28 -65 37 -58 10 2 -8 6 -40 9 -71 4 -48 1 -60 -17 -78 -11
-11 -32 -21 -46 -21 -24 0 -24 1 -27 98 l-3 97 -40 2 c-22 2 -54 -4 -72 -11z
m57 -126 c0 -53 -2 -60 -19 -60 -22 0 -51 35 -51 62 0 22 34 58 55 58 12 0 15
-13 15 -60z"/>
<path d="M6086 4674 c-38 -37 -4 -113 61 -141 60 -24 134 -34 170 -22 85 28
29 137 -86 169 -55 15 -127 12 -145 -6z m102 -20 c19 -6 22 -13 22 -55 0 -27
-2 -49 -5 -49 -14 0 -81 33 -97 47 -21 19 -24 49 -5 56 17 8 58 8 85 1z m90
-28 c38 -20 65 -53 59 -71 -5 -11 -21 -15 -57 -15 l-50 0 0 50 c0 54 6 58 48
36z"/>
<path d="M3768 4604 c-38 -20 -36 -28 2 -9 17 9 30 18 30 20 0 7 -1 6 -32 -11z"/>
<path d="M3410 4538 c0 -7 9 -26 20 -43 28 -42 25 -52 -20 -75 -22 -11 -40
-25 -40 -30 0 -14 5 -13 50 10 22 11 41 20 44 20 2 0 16 -21 31 -46 17 -30 30
-43 37 -36 6 6 2 21 -11 43 -24 38 -27 69 -8 69 17 1 63 37 55 45 -3 4 -24 -3
-47 -14 l-40 -21 -27 45 c-25 44 -44 58 -44 33z"/>
<path d="M3847 4441 c-62 -36 -65 -41 -31 -38 26 2 32 -6 79 -90 29 -51 54
-96 58 -99 3 -3 17 13 32 36 15 23 24 45 20 48 -4 4 -11 -1 -16 -11 -18 -31
-33 -18 -71 56 -44 84 -44 84 -21 109 23 25 6 22 -50 -11z"/>
<path d="M1810 4421 c-20 -16 -71 -68 -115 -117 l-80 -87 -6 -146 c-5 -113
-11 -161 -29 -211 -12 -36 -27 -110 -32 -165 -13 -128 -14 -136 -31 -160 -14
-19 -16 -18 -51 12 -19 18 -53 36 -73 40 -234 49 -412 -142 -337 -361 16 -47
16 -50 -12 -139 -23 -73 -29 -111 -29 -182 0 -89 1 -92 53 -200 43 -87 58
-132 72 -213 18 -97 38 -151 95 -251 17 -30 25 -59 25 -93 0 -26 4 -48 9 -48
12 0 41 75 41 107 0 25 2 24 28 -18 16 -24 37 -51 47 -59 17 -14 18 -13 12 8
-21 68 -21 69 -1 42 21 -28 55 -59 67 -60 4 0 1 13 -8 30 -20 39 -19 50 3 24
21 -25 96 -74 113 -74 8 0 6 7 -4 18 -18 19 -67 126 -67 144 0 6 10 3 22 -8
21 -19 21 -19 13 1 -18 46 -35 109 -30 113 2 3 14 -6 26 -19 18 -21 20 -21 14
-4 -19 55 -28 144 -18 167 l12 23 0 -23 c1 -24 50 -136 57 -129 2 2 -1 19 -6
38 -6 18 -10 53 -10 76 l0 42 51 -50 c96 -94 201 -149 371 -194 125 -34 182
-75 194 -145 4 -19 13 -52 20 -72 11 -32 8 -60 -26 -250 -101 -552 -236 -1006
-372 -1250 -41 -72 -45 -88 -25 -88 36 0 157 270 243 541 63 198 177 692 200
867 7 52 24 82 24 42 0 -59 72 -155 143 -189 62 -30 120 -89 359 -359 60 -68
85 -136 104 -281 26 -208 70 -339 161 -477 21 -34 56 -96 77 -137 30 -61 35
-80 27 -96 -16 -29 -14 -44 6 -37 23 9 33 -11 33 -69 0 -27 4 -55 8 -61 4 -6
54 -34 111 -63 115 -57 157 -63 209 -31 51 31 40 53 -73 152 -67 59 -102 98
-108 117 -5 20 -16 32 -36 39 -43 15 -59 55 -82 209 -14 94 -36 184 -69 283
-39 118 -49 163 -53 240 -3 52 -12 115 -21 140 -29 88 -104 256 -145 325 -23
39 -57 104 -77 145 -19 41 -53 110 -75 153 -22 43 -37 82 -34 87 3 5 41 33 83
61 156 105 350 277 505 447 l57 63 0 -79 c0 -115 24 -227 76 -349 74 -175 92
-267 58 -304 -12 -13 -13 -22 -5 -38 6 -11 11 -35 11 -54 0 -44 35 -82 89 -97
47 -12 285 -5 371 12 68 13 136 44 144 65 11 28 -14 82 -44 98 -16 8 -73 20
-127 25 -75 8 -112 17 -161 41 -70 34 -89 57 -109 132 -19 70 -42 386 -47 639
-3 157 -8 213 -20 235 -21 41 -82 67 -144 61 -111 -11 -392 -187 -696 -436
l-79 -65 -61 23 c-34 12 -107 35 -163 50 -56 16 -117 39 -136 52 -58 39 -198
178 -185 182 7 3 56 9 109 14 100 11 171 37 183 67 15 39 2 88 -53 208 -52
112 -139 253 -192 312 -35 40 -38 65 -14 140 13 39 26 96 30 128 7 57 6 60
-26 93 -46 48 -93 48 -132 -1 -26 -33 -27 -39 -30 -167 -2 -136 5 -167 48
-218 17 -20 145 -321 145 -341 0 -3 -26 -2 -57 2 -32 5 -107 13 -168 18 -60 6
-132 15 -160 21 -34 7 -66 7 -104 0 -85 -16 -97 -13 -119 22 -18 28 -19 34 -6
52 8 11 28 27 46 36 17 8 40 26 50 40 18 25 18 27 -7 99 -14 41 -26 86 -27
100 -1 14 16 60 38 101 l39 75 0 225 c0 150 -4 244 -13 282 -17 72 -10 95 31
106 22 6 42 24 67 59 19 27 49 67 66 89 30 36 33 38 59 26 19 -9 31 -10 38 -3
23 23 -52 71 -110 71 -17 0 -43 -12 -63 -29z"/>
<path d="M5173 4423 c-7 -2 -13 -20 -13 -39 0 -32 -2 -34 -35 -34 -29 0 -36
-4 -41 -27 -9 -35 7 -57 43 -61 21 -2 33 -10 36 -23 7 -27 67 -28 67 0 0 16
11 19 107 24 101 5 109 7 130 32 31 36 32 109 2 125 -30 17 -47 6 -51 -32 l-3
-33 -92 -3 -93 -3 0 35 c0 39 -21 54 -57 39z"/>
<path d="M3165 4398 c-43 -15 -75 -48 -75 -78 0 -36 27 -70 55 -70 21 0 23 -3
18 -38 -6 -42 14 -72 46 -72 31 0 86 44 86 68 0 29 -19 29 -24 0 -4 -27 -17
-38 -47 -38 -39 0 -46 53 -12 95 l21 27 -24 -7 c-13 -4 -29 -10 -36 -12 -18
-7 -53 34 -53 62 0 33 38 52 68 36 26 -14 41 4 21 24 -10 9 -22 10 -44 3z"/>
<path d="M6178 4293 l-3 -58 -57 -3 c-43 -2 -58 -7 -58 -17 0 -12 14 -15 60
-15 l60 0 0 -56 c0 -73 24 -70 28 4 l3 51 56 3 c81 4 84 28 4 28 l-60 0 -3 57
c-4 78 -26 83 -30 6z"/>
<path d="M5396 4174 c-36 -36 -8 -87 44 -82 32 3 35 6 38 38 5 52 -46 80 -82
44z"/>
<path d="M5213 3995 c-32 -14 -63 -59 -63 -92 0 -10 9 -35 19 -56 l19 -37 -79
0 c-76 0 -79 -1 -85 -25 -14 -55 -14 -55 231 -55 l225 0 0 40 0 39 -111 3
c-108 3 -113 4 -132 29 -44 60 4 89 149 89 l94 0 0 40 0 40 -117 0 c-78 -1
-129 -6 -150 -15z"/>
<path d="M3827 3903 c-6 -54 5 -85 13 -38 3 17 9 29 13 29 5 -1 40 -24 78 -50
63 -44 69 -52 65 -76 -3 -16 -4 -28 -2 -28 7 0 76 97 76 105 0 5 -9 0 -20 -10
-23 -20 -21 -21 -142 66 -37 27 -69 49 -72 49 -2 0 -6 -21 -9 -47z"/>
<path d="M6070 3909 c0 -34 3 -40 12 -31 8 8 45 12 100 12 87 0 88 0 88 25 0
25 -14 33 -25 15 -11 -17 -141 -12 -159 6 -15 14 -16 12 -16 -27z"/>
<path d="M6310 3911 c0 -15 6 -21 21 -21 14 0 19 5 17 17 -5 26 -38 29 -38 4z"/>
<path d="M4235 3774 c-9 -15 -12 -23 -6 -20 11 7 35 46 28 46 -3 0 -12 -12
-22 -26z"/>
<path d="M3513 3693 c-156 -213 -343 -482 -343 -493 0 -11 32 -12 158 -7 86 4
234 10 327 13 l170 7 94 -294 c104 -329 117 -363 130 -355 13 9 401 554 401
565 0 5 -24 28 -52 52 -87 72 -88 73 -99 62 -8 -8 -1 -24 20 -53 17 -24 31
-53 31 -65 0 -20 -298 -451 -306 -442 -2 1 -47 135 -100 297 -53 162 -100 299
-105 304 -5 6 -120 5 -291 -2 -155 -6 -283 -10 -286 -8 -2 2 59 91 136 198
132 183 141 193 174 196 20 2 52 -4 71 -12 36 -15 47 -12 47 10 0 11 -86 79
-115 90 -7 3 -34 -24 -62 -63z"/>
<path d="M6077 3753 c-11 -10 -8 -92 3 -114 7 -12 21 -19 41 -19 23 0 34 7 47
31 34 62 48 75 66 60 20 -17 21 -45 1 -61 -21 -17 -19 -30 4 -30 24 0 35 31
27 75 -14 71 -66 74 -106 5 -30 -51 -53 -61 -70 -29 -10 18 -8 26 8 49 12 15
18 30 15 34 -8 8 -28 8 -36 -1z"/>
<path d="M4188 3708 c-31 -41 -41 -58 -34 -58 3 0 19 20 36 45 36 52 34 61 -2
13z"/>
<path d="M4333 3703 c-4 -9 -2 -18 3 -20 5 -2 36 -21 69 -43 33 -22 62 -35 64
-29 1 5 1 11 0 12 -2 2 -29 24 -61 50 -31 26 -59 47 -62 47 -4 0 -10 -8 -13
-17z"/>
<path d="M3217 3672 c-10 -10 -17 -30 -17 -45 0 -19 -6 -26 -21 -29 -52 -7
-49 -84 3 -102 35 -12 68 15 68 56 0 20 5 28 18 28 26 0 42 20 42 50 0 52 -60
78 -93 42z m71 -14 c20 -20 14 -48 -14 -60 -22 -11 -28 -10 -40 7 -15 20 -18
47 -7 58 11 11 48 8 61 -5z m-62 -93 c3 -14 3 -32 0 -41 -8 -21 -45 -14 -63
12 -12 19 -12 24 2 38 25 24 54 20 61 -9z"/>
<path d="M5167 3664 c-4 -4 -7 -22 -7 -40 0 -31 -2 -33 -37 -36 -36 -3 -38 -5
-38 -38 0 -33 2 -35 37 -38 29 -2 37 -8 40 -25 2 -17 11 -23 35 -25 26 -3 32
1 35 20 3 22 8 23 111 28 99 5 111 7 128 29 22 27 26 100 7 119 -7 7 -22 12
-35 12 -19 0 -23 -5 -23 -34 0 -42 -9 -46 -110 -46 l-79 0 -3 38 c-3 31 -7 37
-28 40 -14 2 -29 0 -33 -4z"/>
<path d="M4120 3610 c-12 -16 -19 -30 -16 -30 2 0 14 14 26 30 12 17 19 30 16
30 -2 0 -14 -13 -26 -30z"/>
<path d="M4503 3584 c-7 -19 11 -39 26 -30 16 10 13 33 -4 40 -9 3 -18 -1 -22
-10z"/>
<path d="M4322 3568 c-7 -7 -12 -27 -12 -46 0 -28 -3 -32 -19 -27 -25 8 -45
-26 -35 -58 7 -21 8 -20 14 8 l6 30 54 -57 c29 -32 57 -58 61 -58 18 0 8 24
-27 66 -42 52 -57 114 -28 114 11 0 38 -21 61 -47 35 -41 44 -46 60 -37 20 12
31 64 14 64 -6 0 -11 -9 -11 -20 0 -11 -3 -20 -6 -20 -3 0 -27 23 -53 50 -49
53 -60 57 -79 38z"/>
<path d="M6070 3531 c0 -39 1 -41 16 -27 12 12 36 16 100 16 83 0 84 0 84 25
0 25 -14 33 -25 15 -9 -14 -148 -13 -163 2 -9 9 -12 3 -12 -31z"/>
<path d="M6310 3535 c0 -8 9 -15 20 -15 11 0 20 7 20 15 0 8 -9 15 -20 15 -11
0 -20 -7 -20 -15z"/>
<path d="M6071 3421 c-1 -35 2 -42 11 -33 20 20 122 15 141 -6 21 -23 22 -48
1 -56 -30 -11 -142 -7 -147 7 -3 6 -6 -8 -6 -32 -1 -35 2 -42 11 -33 7 7 40
12 80 12 55 0 72 4 88 20 24 24 25 39 5 66 -19 25 -19 34 0 34 10 0 15 10 15
32 0 25 -3 29 -12 20 -17 -17 -175 -16 -181 1 -3 6 -6 -8 -6 -32z"/>
<path d="M5213 3410 c-52 -21 -73 -100 -49 -184 11 -38 22 -57 37 -61 35 -11
44 9 25 55 -21 53 -20 76 4 100 34 34 45 25 57 -52 14 -88 40 -118 104 -118
82 0 124 83 83 163 -12 21 -13 32 -5 35 6 2 11 19 11 38 l0 34 -122 -1 c-68 0
-133 -4 -145 -9z m201 -92 c29 -41 15 -88 -25 -88 -33 0 -66 80 -42 103 14 15
53 6 67 -15z"/>
<path d="M6086 3134 c-38 -37 -4 -113 61 -141 60 -24 134 -34 170 -22 85 28
29 137 -86 169 -55 15 -127 12 -145 -6z m102 -20 c19 -6 22 -13 22 -55 0 -27
-2 -49 -5 -49 -14 0 -81 33 -97 47 -21 19 -24 49 -5 56 17 8 58 8 85 1z m90
-28 c38 -20 65 -53 59 -71 -5 -11 -21 -15 -57 -15 l-50 0 0 50 c0 54 6 58 48
36z"/>
<path d="M5062 3068 c-19 -19 -15 -95 6 -116 10 -10 78 -40 150 -67 72 -27
128 -53 124 -56 -4 -4 -67 -29 -140 -55 -109 -39 -136 -52 -143 -71 -13 -34
-11 -97 3 -111 9 -9 70 -12 215 -12 l203 0 0 40 0 40 -167 0 c-105 0 -163 4
-157 9 5 6 79 34 164 63 l155 54 3 41 c2 26 -1 42 -10 45 -7 3 -78 29 -158 58
-80 29 -149 56 -154 61 -6 5 59 9 157 9 l167 0 0 40 0 40 -203 0 c-145 0 -206
-3 -215 -12z"/>
<path d="M4441 2978 c0 -36 2 -39 9 -20 5 12 12 22 14 22 3 0 26 -15 51 -32
38 -27 45 -37 40 -55 -8 -33 -1 -29 29 17 31 47 32 54 7 39 -15 -10 -27 -6
-76 29 -32 23 -62 42 -67 42 -4 0 -8 -19 -7 -42z"/>
<path d="M4385 2839 c-41 -57 -51 -79 -38 -79 9 0 93 113 93 125 0 17 -23 -2
-55 -46z"/>
<path d="M4431 2801 c-38 -54 -53 -89 -33 -77 19 11 92 125 83 130 -4 3 -27
-21 -50 -53z"/>
<path d="M6044 2721 c-22 -10 -50 -31 -62 -46 -32 -40 -27 -53 5 -14 36 43 79
59 157 59 82 0 142 -23 167 -64 12 -20 19 -25 19 -14 0 26 -53 73 -97 86 -59
18 -142 14 -189 -7z"/>
<path d="M4320 2695 c0 -8 5 -15 10 -15 6 0 10 7 10 15 0 8 -4 15 -10 15 -5 0
-10 -7 -10 -15z"/>
<path d="M4227 2653 c-4 -3 -7 -20 -7 -36 0 -22 -4 -28 -15 -23 -8 3 -19 -3
-25 -14 -13 -24 -13 -40 0 -40 6 0 10 7 10 15 0 24 10 18 47 -25 19 -22 39
-40 44 -40 17 0 9 22 -21 57 -30 34 -41 83 -17 83 6 0 26 -17 43 -37 36 -43
65 -41 63 4 -1 17 -3 21 -6 11 -6 -25 -15 -23 -53 17 -33 34 -50 42 -63 28z"/>
<path d="M6030 2592 c0 -11 14 -32 31 -47 17 -14 30 -27 28 -28 -2 -2 -16 -8
-31 -15 -32 -13 -38 -51 -12 -73 13 -11 14 -9 9 14 -6 23 -3 27 22 32 15 4 34
8 40 10 18 6 73 -44 73 -66 0 -10 7 -19 15 -19 25 0 17 37 -15 63 -16 14 -30
28 -30 30 0 3 14 7 30 11 25 5 30 10 30 35 0 15 -7 34 -14 41 -13 10 -15 7
-13 -16 2 -24 -3 -29 -35 -37 -32 -7 -42 -5 -65 13 -16 12 -30 31 -33 43 -7
27 -30 34 -30 9z"/>
<path d="M5173 2513 c-7 -2 -13 -20 -13 -39 0 -32 -2 -34 -35 -34 -29 0 -36
-4 -41 -27 -9 -35 7 -57 43 -61 21 -2 33 -10 36 -23 7 -27 67 -28 67 0 0 16
11 19 107 24 101 5 109 7 130 32 31 36 32 109 2 125 -30 17 -47 6 -51 -32 l-3
-33 -92 -3 -93 -3 0 35 c0 39 -21 54 -57 39z"/>
<path d="M6302 2344 c2 -11 0 -22 -5 -24 -8 -2 -70 7 -99 16 -12 4 -18 0 -18
-10 0 -9 13 -18 34 -21 45 -9 96 -41 96 -60 0 -13 -11 -15 -62 -13 -69 3 -83
-10 -53 -47 16 -19 16 -19 10 8 -5 26 -4 27 22 20 16 -4 44 -8 63 -8 41 0 52
25 24 57 -18 18 -18 20 -1 29 21 12 21 28 1 54 -16 20 -16 20 -12 -1z"/>
<path d="M5246 2270 c-119 -37 -126 -218 -10 -266 45 -19 148 -18 185 1 47 25
69 70 68 140 -2 92 -9 109 -48 113 -29 3 -33 1 -26 -15 4 -10 10 -43 12 -74 5
-52 3 -57 -22 -77 -15 -12 -36 -22 -46 -22 -16 0 -19 11 -21 103 l-3 102 -30
2 c-16 1 -43 -2 -59 -7z m29 -198 c-10 -10 -60 35 -63 57 -4 25 13 50 43 61
19 7 20 3 23 -52 2 -33 0 -63 -3 -66z"/>
<path d="M5960 2117 c0 -19 36 -60 71 -78 87 -44 203 -33 264 26 19 18 35 38
35 45 0 7 -9 1 -21 -14 -36 -45 -76 -60 -164 -60 -89 0 -129 15 -164 61 -11
15 -21 24 -21 20z"/>
<path d="M5246 1930 c-119 -37 -126 -218 -10 -266 45 -19 148 -18 185 1 47 25
69 70 68 140 -2 92 -9 109 -48 113 -29 3 -33 1 -26 -15 4 -10 10 -43 12 -74 5
-52 3 -57 -22 -77 -15 -12 -36 -22 -46 -22 -16 0 -19 11 -21 103 l-3 102 -30
2 c-16 1 -43 -2 -59 -7z m29 -198 c-10 -10 -60 35 -63 57 -4 25 13 50 43 61
19 7 20 3 23 -52 2 -33 0 -63 -3 -66z"/>
<path d="M6210 1933 c0 -10 96 -53 118 -53 6 0 12 8 12 19 0 13 -9 20 -32 24
-18 3 -48 9 -65 13 -19 4 -33 2 -33 -3z"/>
<path d="M6090 1570 c0 -80 4 -130 10 -130 6 0 10 50 10 130 0 80 -4 130 -10
130 -6 0 -10 -50 -10 -130z"/>
<path d="M6180 1570 c0 -80 4 -130 10 -130 6 0 10 50 10 130 0 80 -4 130 -10
130 -6 0 -10 -50 -10 -130z"/>
<path d="M5417 1613 c-4 -3 -7 -37 -7 -75 l0 -68 -175 0 -175 0 -6 -24 c-3
-14 -3 -34 1 -45 6 -21 11 -21 213 -19 l207 3 3 118 3 117 -29 0 c-16 0 -32
-3 -35 -7z"/>
<path d="M4385 1572 c-78 -27 -97 -90 -45 -142 24 -24 25 -30 4 -30 -12 0 -14
-7 -9 -32 9 -43 10 -43 32 -21 12 12 65 27 171 48 l153 29 -7 31 c-9 44 -16
51 -25 27 -5 -14 -21 -23 -51 -29 l-43 -9 -7 44 c-8 51 -22 70 -65 89 -40 16
-47 16 -108 -5z m137 -49 c23 -21 24 -69 1 -81 -38 -20 -124 -32 -144 -21 -26
14 -39 49 -27 72 22 42 134 62 170 30z"/>
<path d="M4050 1528 c3 -32 159 -770 163 -775 4 -3 9 -4 11 -2 9 9 -150 773
-162 777 -7 2 -12 2 -12 0z"/>
<path d="M3677 1434 c-38 -12 -51 -22 -64 -49 -16 -33 -16 -37 0 -70 9 -19 21
-35 27 -35 5 0 10 -4 10 -10 0 -5 -7 -10 -15 -10 -12 0 -14 -7 -9 -27 10 -41
13 -44 32 -25 11 11 70 27 170 47 l153 29 -7 31 c-7 35 -24 58 -24 32 0 -19
-37 -37 -76 -37 -21 0 -24 5 -24 35 0 47 -43 94 -90 100 -19 3 -57 -2 -83 -11z
m135 -51 c23 -21 24 -69 1 -81 -10 -5 -42 -15 -72 -21 -46 -10 -58 -9 -78 4
-38 25 -29 75 17 97 44 23 108 23 132 1z"/>
<path d="M4730 1349 c-13 -8 -12 -12 8 -26 14 -10 22 -26 22 -44 0 -48 -35
-48 -128 3 -44 23 -83 40 -87 36 -8 -7 14 -129 25 -141 5 -5 18 -6 31 -2 21 7
21 8 5 20 -16 12 -36 85 -23 85 4 0 31 -16 61 -35 53 -34 87 -42 120 -29 21 8
21 75 1 114 -18 34 -15 33 -35 19z"/>
<path d="M5223 1296 c-90 -40 -94 -193 -7 -247 85 -52 223 -29 257 44 20 42
22 141 4 177 -14 28 -65 37 -58 10 2 -8 6 -40 9 -71 4 -48 1 -60 -17 -78 -11
-11 -32 -21 -46 -21 -24 0 -24 1 -27 98 l-3 97 -40 2 c-22 2 -54 -4 -72 -11z
m57 -126 c0 -53 -2 -60 -19 -60 -22 0 -51 35 -51 62 0 22 34 58 55 58 12 0 15
-13 15 -60z"/>
<path d="M6196 1258 c5 -25 3 -28 -17 -28 -23 0 -93 14 -131 26 -13 4 -18 0
-18 -14 0 -15 12 -21 54 -31 63 -14 106 -44 106 -73 0 -19 -4 -20 -47 -13
-101 15 -108 13 -111 -21 -2 -19 3 -36 12 -44 14 -11 15 -8 9 20 -5 26 -3 32
8 28 37 -14 129 -30 143 -25 25 10 19 57 -9 87 l-26 27 23 -1 c29 -1 36 39 13
69 -15 19 -15 19 -9 -7z"/>
<path d="M3840 1163 c0 -3 7 -14 16 -24 15 -16 13 -19 -25 -38 -22 -12 -47
-21 -55 -21 -28 0 -86 41 -86 61 0 14 -7 19 -26 19 -19 0 -25 -5 -22 -17 3
-15 27 -35 83 -69 16 -9 14 -12 -18 -32 -44 -26 -48 -52 -10 -81 31 -25 44
-19 19 8 -17 19 -17 20 6 34 58 38 73 40 117 18 27 -14 41 -28 41 -41 0 -15 7
-20 25 -20 14 0 25 3 25 6 0 19 -26 47 -62 65 l-42 21 37 19 c43 22 48 48 15
79 -22 20 -38 26 -38 13z"/>
<path d="M4590 1092 c0 -5 7 -15 15 -22 23 -19 6 -33 -94 -75 l-88 -37 -42 21
c-34 18 -41 26 -41 51 0 23 -5 30 -19 30 -29 0 -34 -16 -16 -49 23 -45 208
-129 343 -156 29 -6 32 -4 32 17 0 24 -20 64 -20 41 0 -9 -16 -13 -47 -12 -55
1 -124 20 -125 34 0 5 29 20 64 33 112 42 128 82 51 126 -7 4 -13 3 -13 -2z"/>
<path d="M6030 1012 c0 -11 14 -32 31 -47 17 -14 30 -27 28 -28 -2 -2 -16 -8
-31 -15 -32 -13 -38 -51 -12 -73 13 -11 14 -9 9 14 -6 23 -3 27 22 32 15 4 34
8 40 10 18 6 73 -44 73 -66 0 -10 7 -19 15 -19 25 0 17 37 -15 63 -16 14 -30
28 -30 30 0 3 14 7 30 11 25 5 30 10 30 35 0 15 -7 34 -14 41 -13 10 -15 7
-13 -16 2 -24 -3 -29 -35 -37 -32 -7 -42 -5 -65 13 -16 12 -30 31 -33 43 -7
27 -30 34 -30 9z"/>
<path d="M4035 910 c-3 -5 6 -17 20 -26 31 -20 33 -59 5 -74 -21 -11 -52 0
-150 55 -28 16 -46 22 -48 15 -2 -6 1 -40 8 -76 11 -57 15 -64 36 -64 24 0 33
15 13 22 -9 3 -32 79 -25 85 1 1 31 -16 67 -37 90 -56 139 -52 139 12 0 62
-44 122 -65 88z"/>
<path d="M6302 764 c2 -11 0 -22 -5 -24 -8 -2 -70 7 -99 16 -12 4 -18 0 -18
-10 0 -9 13 -18 34 -21 45 -9 96 -41 96 -60 0 -13 -11 -15 -62 -13 -69 3 -83
-10 -53 -47 16 -19 16 -19 10 8 -5 26 -4 27 22 20 16 -4 44 -8 63 -8 41 0 52
25 24 57 -18 18 -18 20 -1 29 21 12 21 28 1 54 -16 20 -16 20 -12 -1z"/>
<path d="M6260 475 c0 -50 4 -85 10 -85 6 0 10 35 10 85 0 50 -4 85 -10 85 -6
0 -10 -35 -10 -85z"/>
<path d="M5759 466 c8 -10 5 -41 -14 -124 -14 -61 -25 -115 -25 -120 0 -13 87
-14 111 -1 43 23 65 132 33 163 -20 21 -26 20 -59 -6 l-28 -22 6 24 c4 14 10
42 13 63 6 35 5 37 -21 37 -22 0 -25 -3 -16 -14z m91 -145 c0 -41 -35 -91 -65
-91 -21 0 -25 5 -25 30 0 37 23 85 47 99 24 13 43 -4 43 -38z"/>
<path d="M5460 385 l0 -55 -50 0 c-64 0 -66 -18 -2 -22 l47 -3 3 -52 c4 -68
20 -68 24 0 l3 52 48 3 c63 4 61 22 -3 22 l-50 0 0 55 c0 30 -4 55 -10 55 -5
0 -10 -25 -10 -55z"/>
<path d="M4028 389 c-25 -14 -22 -26 4 -25 19 1 24 -7 34 -59 7 -33 13 -69 14
-81 0 -28 -38 -67 -61 -61 -14 4 -19 0 -19 -14 0 -33 36 -21 78 26 46 52 126
200 117 215 -3 6 -15 10 -26 10 -15 0 -18 -5 -13 -24 6 -24 -31 -126 -46 -126
-5 0 -11 27 -15 60 -6 54 -24 91 -43 90 -4 0 -15 -5 -24 -11z"/>
<path d="M4743 388 c-13 -6 -23 -15 -23 -20 0 -12 18 -10 26 3 16 26 21 -17 8
-70 -17 -71 -17 -91 -1 -91 17 0 46 114 38 153 -7 35 -17 40 -48 25z"/>
<path d="M4826 379 c-33 -26 -34 -45 -1 -23 40 26 44 1 19 -113 -5 -26 -3 -33
9 -33 11 0 19 17 27 54 12 57 51 112 71 100 8 -4 9 -24 4 -58 -12 -90 -12 -91
16 -94 15 -2 31 4 39 13 12 15 10 15 -15 9 -25 -6 -27 -5 -21 11 4 10 9 45 13
78 5 45 3 61 -8 68 -20 13 -24 12 -58 -17 -29 -24 -31 -24 -31 -6 0 11 -7 23
-16 26 -21 8 -18 9 -48 -15z"/>
<path d="M5078 389 c-25 -14 -23 -33 2 -19 17 9 20 6 30 -30 9 -35 8 -43 -12
-70 -12 -16 -30 -30 -40 -30 -10 0 -18 -7 -18 -15 0 -26 34 -16 55 15 25 38
31 38 39 -1 5 -26 10 -30 33 -27 14 2 28 8 30 15 3 7 -3 10 -15 6 -20 -5 -32
19 -32 62 1 25 33 65 54 65 9 0 16 8 16 20 0 29 -14 25 -46 -13 l-29 -32 -15
29 c-17 34 -28 39 -52 25z"/>
<path d="M4350 360 c0 -6 45 -10 116 -10 74 0 113 4 109 10 -4 6 -53 10 -116
10 -66 0 -109 -4 -109 -10z"/>
<path d="M6325 300 l7 -30 -59 0 c-65 0 -78 6 -86 35 -2 11 -5 -9 -4 -45 0
-36 2 -55 4 -43 5 29 32 36 117 31 36 -1 66 -2 66 0 0 8 -41 82 -46 82 -3 0
-3 -13 1 -30z"/>
<path d="M4350 280 c0 -6 45 -10 116 -10 74 0 113 4 109 10 -4 6 -53 10 -116
10 -66 0 -109 -4 -109 -10z"/>
</g>
</svg>
